<svg version="1.1" preserveAspectRatio="none" xmlns="http://www.w3.org/2000/svg" width="500" height="500" viewBox="0 0 500 500"><rect width="100%" height="100%" fill="#F5F1EE" fill-opacity="1"/><svg viewBox="103.1416 97.8099 329.4262 266" width="333" height="268.88571704375664" x="83.5px" y="115.5571px" xmlns="http://www.w3.org/2000/svg" xmlns:xlink="http://www.w3.org/1999/xlink" preserveAspectRatio="none"><defs></defs><style>.companyName {fill:#9D5D35;fill-opacity:1;}.icon1 {fill:#D6C4B0;fill-opacity:1;}.icon2 {fill:#5D949E;fill-opacity:1;}.icon3 {fill:#958868;fill-opacity:1;}.icon3-str {stroke:#958868;stroke-opacity:1;}</style><g opacity="1" transform="rotate(0 164.8748 97.8099)">
<svg width="205.9598" height="200" x="164.8748" y="97.8099" version="1.1" preserveAspectRatio="none" viewBox="20.029937744140625 22.236143112182617 160.12294006347656 155.4894256591797">
  <g transform="matrix(1 0 0 1 0 0)"><g><path d="M178.2 121.3c0-.2 0-.4.1-.7.1-.6.4-1.2.6-1.9.3-1.3 0-2.6-.6-3.8-.5-1.2-1.3-2.3-1.8-3.5-.3-.7-.6-1.4-.7-2.1-.1-.7 0-1.4 0-2.1-.1-1.5-.5-2.9-1.2-4.2 0 0-.7-1.9-.7-2.1-.3-.9-.1-1.6 0-2.5.1-1.1-.3-2.1-1.1-2.8-.3-.3-.7-.5-1-.8-.9-.7-1.5-1.7-2.1-2.7-2.8-4.3-8.5-3.3-12.9-3.1-2 .1-4 .2-5.9.4-4.6.4-9.1 1.7-13.6 2.8 0 0-3 .2 0-1.8-.2 0 11.3-6.4 11.3-6.4s11.6-5.4 11.4-9.5c-.1 0-.2-3.9-.1-4.3-.1.1.4-2.1-.4-3.2 0 0-.8-1.5-1.4-1.8-.8-.4-1.5-1.6-1.8-2.5-.4-1.3-.5-2.7-1.2-4-.8-1.4-2.2-2.3-3.2-3.6-1.1-1.3-1.4-3-1.7-4.6-.1-.8-.3-1.7-.5-2.5-.3-.9-.8-1.6-1.4-2.4-.3-.5-.6-1.1-.6-1.7 0-.3.1-.6.2-.9.3-1.2.2-2.5.2-3.7 0-1 .1-2 .1-3s.2-1.8.4-2.8c.4-1.5.4-3 0-4.5-.1-.5-.2-.9-.4-1.3-.1-.4-.3-.9-.5-1.3-.8-2.1-2.3-3.7-4.5-4.1-2.2-.3-4.5.5-6.5 1.5l-1.2.6c-3.1 1.7-6.1 4.1-8.6 6.5-3.4 3.2-5.9 6.9-8.1 11-1.8 3.4-3.4 7-4.8 10.6-1.8 4.7-3.2 9.5-4.1 14.5-.8 4.6-1.2 9.3-.8 14 0 .6 0 1.3.1 2 0 1.6.1 3.2.1 4.8.1 2.1.1 4.3.2 6.4 0 1.3.1 2.6.2 3.9.1.9.8 2.7 0 3.4-.2.2-.5.2-.7.2-.3 0-2-1-2.5-1.4v-.4l-.2-3-.3-3.9-.2-3.7c-.1-1-.2-1.9-.1-2.9 0-.4 0-.7-.1-1.1-.1-.5-.2-1.1-.3-1.6-.1-.6-.1-1.1-.3-1.7-.2-1.1-.5-2.2-1-3.3l-.6-.9c-.2-.3-.5-.7-.7-1.1-.2-.4-.7-.5-.9-.1-.3.5.5 1.1 1 1.3 1.3.6 1.6 2.6 1.7 3.9l1.6 18.2-14.9-10.6c-1-.8-2.6-2.1-2.4-3.5.1-.5 0-1.4-.6-1.5-.5-.1-.7.4-.4.8.2.4.4.8.6 1.1.2.3.3.6.5 1 .6 1 1.4 1.8 2.3 2.5.4.4.9.8 1.3 1.1.4.3.8.7 1.2 1.1l.9.6c.8.5 1.6 1.1 2.4 1.6l3 2.1 3.2 2.3 2.5 1.8.4.3v.2l-.1.4-.3 1.6c-.3 1.7-2.6.2-4.1-1-.4-.3-.8-.6-1.1-.8-1.4-1-2.8-1.9-4.2-2.8-5.1-3.2-10.3-6.1-15.8-8.6-3.5-1.6-7-3-10.6-4.2-3.9-1.3-7.8-2.3-11.8-3-4.1-.7-8.3-1.1-12.5-1.1-4.3.1-8.5.6-12.6 1.7-1.6.4-3.1.9-4.7 1.5-.8.3-1.6.6-2.3 1-1.6.7-2.9 1.5-3.9 2.8-1 1.3-1.8 2.8-2 4.4-.3 2 .4 3.7 1.4 5.4 0 0 1.5.4 2.1.9.7.7 1 1.5 2 1.8.6.2 1.3.3 1.9.6.6.3 1.2.5 1.8.8.6.3 1.2.5 1.8.9.7.5.9.9 1.3 1.6.2.4.6.6 1 .6.5.1 1-.1 1.6 0 .3.1.6.2.9.4.9.5 1.7 1.5 1.8 2.5.2.9.8 1.9 1.4 2.5 1.2 1.5 3.2 1.9 4.1 3.8.6 1.4.3 2.9.7 4.4.2.7.5 1.3 1 1.8.9 1 2.2 1.2 3.1 2.3.6.8.8 1.6.7 2.6 0 .4 0 .9.1 1.3.7 2.6 3.9 2.8 5.5 4.6.8.9 1.5 1.6 2.8 1.7 1.5.1 2.9-.4 4.2-1.1 1.8-1 3.6-2 5.4-2.9 3.3-1.7 6.7-3.5 10-5.1 1.6-.8 3.1-1.8 4.8-2.3.3-.1 1.4-.5 1.6-.2.2.3-9.7 10.1-12.3 14.7 0 0-1.6 2.5-1.7 2.7-1 1.8-2 3.6-2.8 5.5-.3.8-.6 1.7-.8 2.5-.2 1.3.4 2.6 1.1 3.8.3.5.6 1.1.8 1.6.3.9 0 1.7.3 2.5.7 1.9 3.2 1.6 4.4 3 .3.3.4.7.6 1.1l1 2.1c.3.6.6 1.3 1.2 1.7.5.3 1.1.4 1.7.6.6.1 1.2.3 1.5.8.2.3.3.7.5 1.1.3.6.8.9 1.3 1.4.9.7 1 1.6 1.5 2.6.6 1.1 1.6 1.8 2.8 2.2 1 .4 2.1.6 2.9 1.3 1.5 1.2 1.9 3.6 3.7 4.3 1.1.4 2.3 0 3.4-.4s2.2-.9 3.4-.7c.9.2 1.7.7 2.5 1.1.8.4 1.8.6 2.7.5.7-.1 1.4-.4 2.1-.6 1.9-.6 3.9-.8 5.7-1.4 1.4-.4 2.7-1.1 3.7-2.2.7-.8 1.3-1.9 1.9-2.8 1.2-1.8 2.3-3.7 3.5-5.5.3-.5.6-.9.9-1.4 0 0 1.4-2.4 1.5-6l-.1-15.1c.1-3.3.2-6.6 0-9.8 0-.9-.3-1.9-.1-2.8.1-.4.4-.9.8-1 .3-.1.6 0 .9.1.9.4 1.7 1.1 2.5 1.6.8.6 1.7 1.1 2.5 1.7 1.6 1.1 3.2 2.1 4.8 3.2l.9.6 13.3 8.2c1.2.8 3 1.1 4.4 1.3 3.1.6 6.2.3 9.4.1 1.4-.1 2.9-.3 4.2-.6 1.3-.3 2.6-.9 3.6-1.9 1.1-1.1 1.5-2.7 2.7-3.7.9-.7 2-1 2.8-1.9.8-1 .8-2.4.9-3.6.1-1.5.7-3.2 2.2-3.9.9-.4 1.8-1.2 2.2-2.1.8-2.7-1.8-4.6-1.8-6.9z" data-color="1" class="icon1"></path><path d="M69 102.6c-2-5-4.3-9.8-8.9-12.9-4-2.7-13-3.6-17.1-.1-1.6 1.4-2.5 3.4-1.9 6.3.4 2.1 1.9 4 3.8 5 1.8.8 3.8.9 5.5 2 3.4 2.2 3.2 7.3 5.7 10.4 2.6 3.3 8.1 3.8 11.3 1.1 3.7-3.2 3.2-7.8 1.6-11.8z" data-color="2" class="icon2"></path><path d="M104.6 163.4c-.2-.1-10.4-12.5-10.4-12.5s-10 1.3-4.9 11.1c-.5-.5 2.4 3.6 2.3 5.9.2-.1.7 3.8 5.2 4.3.2.3 5.6-1.7 7.6.1.2-.3 5.6 2.6 5.9-2.5-.9-.7-.8-6.5-5.7-6.4z" data-color="2" class="icon2"></path><path d="M75.9 155.6c-.9-.8-1.3-1.9-1.8-2.9-.6-1.2-3.6-6.8-4.7-5.2-.3.4-.3 1.2-.2 2.1.1 1 .4 2.1.7 2.6.5.8 1.2 1.4 1.8 2.1.9 1 1.6 2.2 2.4 3.4.5.6 1 1.2 1.7 1.5.7.3 1.7 0 1.9-.8.2-.6-.1-1.2-.5-1.6-.4-.5-.9-.8-1.3-1.2z" data-color="2" class="icon2"></path><path d="M137.1 54.3c-.1-1.9.9-3.8 1.1-5.7.2-2.2-.6-4.4-2.3-5.9-2.2-2-7.3-1.4-7-1.7-2.2 1.4-3.8 26.3-1.8 29 2.6 3.5 6.3 6.3 10.9 4.7 4-1.4 6.5-6.2 5-10.2-1.3-3.7-5.7-6.2-5.9-10.2z" data-color="2" class="icon2"></path><path d="M171.4 123.3c-2-1.1-4-5.7-3.8-5-5.7-9.5-12-1.6-12-1.6s5.3 15.1 5.2 15.3c-2.7 4.1 2.4 8.2 2.4 8.2 4.5 2.4 5.3-3.7 5.3-3.7-.5-2.7 4.1-6.2 3.9-6.5 1.8-4.2-1.2-6.7-1-6.7z" data-color="2" class="icon2"></path><path d="M169.1 103.5c.1.6.1 1.2.3 1.7.2.6.5 1.1 1.1 1.3.8.2 1.5-.5 1.7-1.3.2-.8-.1-1.5-.4-2.2-.5-1.3-1.2-2.5-1.6-3.8-.3-.9-.4-1.8-.9-2.6-.2-.4-1-1.3-1.8-1.9-.7-.6-1.4-1-1.9-1-2 .2 1.3 5.6 2 6.7.5 1 1.2 1.9 1.5 3.1z" data-color="2" class="icon2"></path><path d="M92 105.9c.4-.4 6.2-6.5 6.3-6.4-43.2-28.6-67.2-15.7-67.2-15.7-.3.3-.5.6-.8 1-3.2 4.6 1.6 6.9 5.6 7.8 2.3.5 4.6.7 7 .9.8.1 1.8.2 2.6.2 1.9-.1 3.4-1.4 5.4-1.3 1.4.1 2.6.6 3.7 1.5 2.3 1.7 2.9 4.2 4.3 6.6 1.3 2.2 2.8 4.2 4.6 6 3.5 3.5 8.2 6 13.3 6 5.7-.2 10.9-3 15.2-6.6z" data-color="3" class="icon3"></path><path d="M113.2 118.5c-9.4-7.9-8 11.8-8 16 0 4.2-4.3 8-7.1 10.7-3.4 3.2-6.9 7.1-6.6 11.7.3 4.3 4.2 10.1 8.2 12 2.7 1.3 5.5.7 7.9-1.1 2.3-1.7 4.1-4.1 5.6-6.4 1.1-1.7 2-3.4 3.3-5.1 4.2-5.9 1.4-17 .2-23.5-1-4.8-2.1-9.6-3.5-14.3z" data-color="3" class="icon3"></path><path d="M95.5 136.4c4.9-7 4.6-21.6 4.6-21.6-8 2.3-25.2 24.6-25.2 24.6-5.8 6.2-.5 10.9-.5 10.9 4.1 5.9 9.8 0 9.8 0l11.3-13.9z" data-color="3" class="icon3"></path><path d="M118.1 91.3c5.3-1.7 10.5-4.8 13.4-9.6 2.6-4.3 2.9-9.6 1.8-14.4-.6-2.5-1.5-4.8-2.7-7-1.3-2.4-3.1-4.2-3.4-7-.1-1.3.1-2.7.7-3.9.9-1.8 2.9-2.4 3.9-3.9.5-.7.8-1.5 1.2-2.3 1.1-2.1 2.1-4.2 2.9-6.4 1.3-3.9 1.9-9.1-3.7-8.8-.4 0-.8.1-1.3.1 0 0-26.9 14.6-21.6 65.3 0-.2 8.2-2 8.8-2.1z" data-color="3" class="icon3"></path><path d="M162 117.4c-3.8-2.7-9-1.7-13.5-.5-3.7 1-9.2 2.7-12.8.5-3.7-2.2-19.8-13.6-17.9-1.5 3.3 3.6 6.8 7.1 10.4 10.4 4.9 4.4 13 12.7 20.2 12.1 2.1-.2 4-.1 6.1-.1 2.8-.1 5.8-.3 8.5-1.4 2.7-1.1 4.7-3.2 5-6.2.5-4.4-2.5-10.8-6-13.3z" data-color="3" class="icon3"></path><path d="M142.4 110.2l17.8-2.3s8-1.8 5.1-8.4c-5.5-11.2-37.6-2.2-43.8 3.3 0 0 12.4 7.9 20.9 7.4z" data-color="3" class="icon3"></path></g></g>
</svg>
</g><g opacity="1" transform="rotate(0 103.1416 323.8099)">
<svg width="329.4262" height="40" x="103.1416" y="323.8099" version="1.1" preserveAspectRatio="none" viewBox="1.6016 -26.8359 225.35150000000002 27.3632">
  <g transform="matrix(1 0 0 1 0 0)" class="companyName"><path id="id-D6z1nYkh9" d="M31.19-18.81L29.00-18.81L29.00-24.55L9.65-24.55L9.65-15.31L24.55-15.31L24.55-13.05L9.65-13.05L9.65-2.29L29.28-2.29L29.28-8.44L31.48-8.44L31.48 0L1.60 0L1.60-2.21L7.21-2.21L7.21-24.65L1.60-24.65L1.60-26.84L31.19-26.84L31.19-18.81Z M34.28-16.41L34.28-18.59L43.93-18.59L43.93-16.41L40.64-16.41L47.52-2.36L54.43-16.41L51.15-16.41L51.15-18.59L60.80-18.59L60.80-16.41L57.11-16.41L48.75 0L46.23 0L37.95-16.41L34.28-16.41Z M64.84-10.23L82.01-10.23Q81.91-11.56 81.41-12.75Q80.90-13.95 79.88-14.85Q78.87-15.76 77.32-16.30Q75.78-16.84 73.61-16.84L73.61-16.84Q71.58-16.84 70.02-16.30Q68.46-15.76 67.36-14.85Q66.27-13.95 65.64-12.75Q65.02-11.56 64.84-10.23L64.84-10.23ZM73.57 0.49L73.57 0.49Q71.02 0.49 68.94-0.19Q66.86-0.86 65.39-2.12Q63.93-3.38 63.13-5.18Q62.32-6.97 62.32-9.20L62.32-9.20Q62.32-11.37 63.16-13.17Q64.00-14.98 65.51-16.28Q67.01-17.58 69.08-18.29Q71.15-19.00 73.61-19.00L73.61-19.00Q76.17-19.00 78.20-18.28Q80.23-17.56 81.64-16.20Q83.05-14.84 83.79-12.91Q84.53-10.98 84.53-8.55L84.53-8.55L84.53-8.13L64.84-8.13Q64.98-6.64 65.62-5.45Q66.25-4.26 67.36-3.42Q68.48-2.58 70.03-2.13Q71.58-1.68 73.57-1.68L73.57-1.68Q75.49-1.68 76.90-1.99Q78.32-2.30 79.31-2.83Q80.29-3.36 80.91-4.02Q81.52-4.69 81.86-5.39L81.86-5.39L84.30-5.39Q83.14-2.42 80.38-0.97Q77.62 0.49 73.57 0.49Z M87.29-16.41L87.29-18.59L94.12-18.59L94.12-15.08Q95.04-15.96 96.17-16.71Q97.30-17.46 98.61-18.03Q99.92-18.59 101.37-18.92Q102.81-19.24 104.34-19.24L104.34-19.24Q106.15-19.24 107.51-18.78Q108.87-18.32 109.77-17.48Q110.66-16.64 111.11-15.44Q111.56-14.24 111.56-12.75L111.56-12.75L111.56-2.21L115.98-2.21L115.98 0L104.73 0L104.73-2.21L109.12-2.21L109.12-12.03Q109.12-13.52 108.74-14.48Q108.36-15.45 107.66-16.02Q106.95-16.58 105.95-16.81Q104.94-17.03 103.69-17.03L103.69-17.03Q102.23-17.03 100.82-16.64Q99.41-16.25 98.17-15.66Q96.93-15.08 95.89-14.37Q94.84-13.65 94.12-13.01L94.12-13.01L94.12-2.21L98.54-2.21L98.54 0L87.29 0L87.29-2.21L91.68-2.21L91.68-16.41L87.29-16.41Z M116.60-16.41L116.60-18.59L121.64-18.59L121.64-25.04L124.08-25.04L124.08-18.59L137.17-18.59L137.17-16.41L124.08-16.41L124.08-5.57Q124.08-4.41 124.50-3.65Q124.92-2.89 125.68-2.44Q126.45-1.99 127.51-1.82Q128.57-1.64 129.84-1.64L129.84-1.64Q131.11-1.64 132.17-1.80Q133.22-1.95 134.08-2.20Q134.94-2.44 135.65-2.76Q136.37-3.09 136.95-3.44L136.95-3.44L138.16-1.48Q137.44-1.07 136.53-0.71Q135.63-0.35 134.57-0.09Q133.52 0.18 132.32 0.33Q131.13 0.49 129.88 0.49L129.88 0.49Q128.01 0.49 126.48 0.18Q124.96-0.14 123.89-0.84Q122.81-1.54 122.23-2.69Q121.64-3.83 121.64-5.49L121.64-5.49L121.64-16.41L116.60-16.41Z M165.08-9.28L165.08-9.28Q165.08-6.72 164.16-4.87Q163.24-3.03 161.64-1.83Q160.04-0.63 157.86-0.05Q155.68 0.53 153.16 0.53L153.16 0.53Q150.63 0.53 148.44-0.05Q146.25-0.63 144.64-1.83Q143.03-3.03 142.11-4.87Q141.19-6.72 141.19-9.28L141.19-9.28Q141.19-11.82 142.12-13.68Q143.05-15.55 144.67-16.75Q146.29-17.95 148.48-18.54Q150.66-19.12 153.16-19.12L153.16-19.12Q155.68-19.12 157.86-18.54Q160.04-17.97 161.64-16.77Q163.24-15.57 164.16-13.70Q165.08-11.84 165.08-9.28ZM162.68-9.28L162.68-9.28Q162.68-13.05 160.28-15.04Q157.89-17.03 153.16-17.03L153.16-17.03Q148.42-17.03 146.01-15.04Q143.59-13.05 143.59-9.28L143.59-9.28Q143.59-5.51 146.01-3.54Q148.42-1.56 153.16-1.56L153.16-1.56Q157.89-1.56 160.28-3.54Q162.68-5.53 162.68-9.28Z M167.91-16.41L167.91-18.59L174.75-18.59L174.75-14.69Q175.55-15.63 176.46-16.44Q177.38-17.25 178.45-17.84Q179.51-18.44 180.73-18.78Q181.95-19.12 183.36-19.12L183.36-19.12Q184.06-19.12 184.67-19.01Q185.27-18.91 185.74-18.77Q186.21-18.63 186.52-18.50Q186.84-18.36 186.95-18.32L186.95-18.32L186.07-16.07Q185.59-16.33 184.81-16.60Q184.04-16.88 182.87-16.88L182.87-16.88Q181.39-16.88 180.15-16.42Q178.91-15.96 177.90-15.27Q176.89-14.59 176.11-13.76Q175.33-12.93 174.75-12.21L174.75-12.21L174.75-2.21L179.55-2.21L179.55 0L167.91 0L167.91-2.21L172.30-2.21L172.30-16.41L167.91-16.41Z M188.36-16.41L188.36-18.59L195.20-18.59L195.20-2.21L199.61-2.21L199.61 0L188.36 0L188.36-2.21L192.75-2.21L192.75-16.41L188.36-16.41ZM191.52-23.81L191.52-23.81Q191.52-24.26 191.69-24.66Q191.86-25.06 192.15-25.35Q192.44-25.64 192.83-25.82Q193.22-26.00 193.67-26.00L193.67-26.00Q194.12-26.00 194.52-25.82Q194.92-25.64 195.22-25.35Q195.53-25.06 195.70-24.66Q195.88-24.26 195.88-23.81L195.88-23.81Q195.88-23.36 195.70-22.96Q195.53-22.56 195.22-22.27Q194.92-21.97 194.52-21.81Q194.12-21.64 193.67-21.64L193.67-21.64Q193.22-21.64 192.83-21.81Q192.44-21.97 192.15-22.27Q191.86-22.56 191.69-22.96Q191.52-23.36 191.52-23.81Z M219.88 0L219.88-2.17Q218.98-1.72 217.89-1.24Q216.80-0.76 215.53-0.37Q214.26 0.02 212.83 0.27Q211.41 0.53 209.84 0.53L209.84 0.53Q208.09 0.53 206.66 0.18Q205.23-0.18 204.24-0.87Q203.24-1.56 202.70-2.59Q202.15-3.61 202.15-4.96L202.15-4.96Q202.15-7.05 203.50-8.38Q204.84-9.71 207.22-10.50Q209.59-11.29 212.83-11.66Q216.07-12.03 219.88-12.21L219.88-12.21L219.88-13.13Q219.88-14.16 219.32-14.90Q218.75-15.64 217.79-16.11Q216.84-16.58 215.58-16.81Q214.32-17.03 212.91-17.03L212.91-17.03Q211.27-17.03 210.05-16.83Q208.83-16.62 207.99-16.22Q207.15-15.82 206.65-15.24Q206.15-14.67 205.92-13.93L205.92-13.93L203.44-14.51Q204.06-16.70 206.42-17.91Q208.77-19.12 212.83-19.12L212.83-19.12Q214.88-19.12 216.62-18.77Q218.36-18.42 219.62-17.66Q220.88-16.89 221.59-15.67Q222.30-14.45 222.30-12.71L222.30-12.71L222.30-2.21L226.95-2.21L226.95 0L219.88 0ZM219.88-4.51L219.88-10.16Q215.61-10 212.68-9.60Q209.75-9.20 207.94-8.56Q206.13-7.93 205.34-7.06Q204.55-6.19 204.55-5.08L204.55-5.08Q204.55-3.36 206.04-2.46Q207.54-1.56 210.43-1.56L210.43-1.56Q211.66-1.56 213.06-1.84Q214.45-2.11 215.76-2.53Q217.07-2.95 218.16-3.48Q219.26-4.00 219.88-4.51L219.88-4.51Z"/></g>
</svg>
</g></svg></svg>